<mxfile host="app.diagrams.net" modified="2022-06-24T11:52:18.619Z" agent="5.0 (Windows NT 10.0; Win64; x64) AppleWebKit/537.36 (KHTML, like Gecko) Chrome/102.0.0.0 Safari/537.36" etag="U-lLYLYgCD3EtfAjWviN" version="20.0.2" type="github">
  <diagram id="UolQ62wsVZwc5IThrO4S" name="Page-1">
    <mxGraphModel dx="1014" dy="1667" grid="1" gridSize="10" guides="1" tooltips="1" connect="1" arrows="1" fold="1" page="1" pageScale="1" pageWidth="850" pageHeight="1100" math="0" shadow="0">
      <root>
        <mxCell id="0" />
        <mxCell id="1" parent="0" />
        <mxCell id="kOjvWL8ZM4Nth4hHjJhm-1" value="Admin" style="shape=umlActor;verticalLabelPosition=bottom;verticalAlign=top;html=1;outlineConnect=0;" vertex="1" parent="1">
          <mxGeometry x="110" y="130" width="30" height="60" as="geometry" />
        </mxCell>
        <mxCell id="kOjvWL8ZM4Nth4hHjJhm-2" value="Login" style="ellipse;whiteSpace=wrap;html=1;" vertex="1" parent="1">
          <mxGeometry x="240" y="70" width="120" height="40" as="geometry" />
        </mxCell>
        <mxCell id="kOjvWL8ZM4Nth4hHjJhm-3" value="Menu" style="ellipse;whiteSpace=wrap;html=1;" vertex="1" parent="1">
          <mxGeometry x="240" y="240" width="120" height="40" as="geometry" />
        </mxCell>
        <mxCell id="kOjvWL8ZM4Nth4hHjJhm-4" value="Logout" style="ellipse;whiteSpace=wrap;html=1;" vertex="1" parent="1">
          <mxGeometry x="240" y="370" width="120" height="40" as="geometry" />
        </mxCell>
        <mxCell id="kOjvWL8ZM4Nth4hHjJhm-7" value="Manajemen" style="ellipse;whiteSpace=wrap;html=1;" vertex="1" parent="1">
          <mxGeometry x="430" y="120" width="120" height="40" as="geometry" />
        </mxCell>
        <mxCell id="kOjvWL8ZM4Nth4hHjJhm-8" value="Proses tahap" style="ellipse;whiteSpace=wrap;html=1;" vertex="1" parent="1">
          <mxGeometry x="430" y="390" width="120" height="40" as="geometry" />
        </mxCell>
        <mxCell id="kOjvWL8ZM4Nth4hHjJhm-9" value="Profil" style="ellipse;whiteSpace=wrap;html=1;" vertex="1" parent="1">
          <mxGeometry x="400" y="20" width="120" height="40" as="geometry" />
        </mxCell>
        <mxCell id="kOjvWL8ZM4Nth4hHjJhm-10" value="Data alumni" style="ellipse;whiteSpace=wrap;html=1;" vertex="1" parent="1">
          <mxGeometry x="600" y="40" width="120" height="40" as="geometry" />
        </mxCell>
        <mxCell id="kOjvWL8ZM4Nth4hHjJhm-11" value="Data user&lt;br&gt;pendaftar" style="ellipse;whiteSpace=wrap;html=1;" vertex="1" parent="1">
          <mxGeometry x="600" y="90" width="120" height="40" as="geometry" />
        </mxCell>
        <mxCell id="kOjvWL8ZM4Nth4hHjJhm-12" value="Loker" style="ellipse;whiteSpace=wrap;html=1;" vertex="1" parent="1">
          <mxGeometry x="600" y="160" width="120" height="40" as="geometry" />
        </mxCell>
        <mxCell id="kOjvWL8ZM4Nth4hHjJhm-13" value="Data user&lt;br&gt;apply" style="ellipse;whiteSpace=wrap;html=1;" vertex="1" parent="1">
          <mxGeometry x="600" y="230" width="120" height="40" as="geometry" />
        </mxCell>
        <mxCell id="kOjvWL8ZM4Nth4hHjJhm-14" value="Pemberkasan" style="ellipse;whiteSpace=wrap;html=1;" vertex="1" parent="1">
          <mxGeometry x="600" y="300" width="120" height="40" as="geometry" />
        </mxCell>
        <mxCell id="kOjvWL8ZM4Nth4hHjJhm-15" value="Psikotest" style="ellipse;whiteSpace=wrap;html=1;" vertex="1" parent="1">
          <mxGeometry x="600" y="360" width="120" height="40" as="geometry" />
        </mxCell>
        <mxCell id="kOjvWL8ZM4Nth4hHjJhm-16" value="Wawancara" style="ellipse;whiteSpace=wrap;html=1;" vertex="1" parent="1">
          <mxGeometry x="610" y="420" width="120" height="40" as="geometry" />
        </mxCell>
        <mxCell id="kOjvWL8ZM4Nth4hHjJhm-17" value="Kesehatan" style="ellipse;whiteSpace=wrap;html=1;" vertex="1" parent="1">
          <mxGeometry x="600" y="490" width="120" height="40" as="geometry" />
        </mxCell>
        <mxCell id="kOjvWL8ZM4Nth4hHjJhm-18" value="Metode" style="ellipse;whiteSpace=wrap;html=1;" vertex="1" parent="1">
          <mxGeometry x="600" y="550" width="120" height="40" as="geometry" />
        </mxCell>
        <mxCell id="kOjvWL8ZM4Nth4hHjJhm-19" value="" style="endArrow=none;html=1;rounded=0;exitX=1;exitY=0.3333333333333333;exitDx=0;exitDy=0;exitPerimeter=0;entryX=0;entryY=0.5;entryDx=0;entryDy=0;" edge="1" parent="1" source="kOjvWL8ZM4Nth4hHjJhm-1" target="kOjvWL8ZM4Nth4hHjJhm-2">
          <mxGeometry width="50" height="50" relative="1" as="geometry">
            <mxPoint x="400" y="280" as="sourcePoint" />
            <mxPoint x="450" y="230" as="targetPoint" />
          </mxGeometry>
        </mxCell>
        <mxCell id="kOjvWL8ZM4Nth4hHjJhm-22" value="" style="endArrow=none;html=1;rounded=0;exitX=0.5;exitY=0;exitDx=0;exitDy=0;entryX=0.5;entryY=1;entryDx=0;entryDy=0;" edge="1" parent="1" source="kOjvWL8ZM4Nth4hHjJhm-4" target="kOjvWL8ZM4Nth4hHjJhm-3">
          <mxGeometry width="50" height="50" relative="1" as="geometry">
            <mxPoint x="400" y="280" as="sourcePoint" />
            <mxPoint x="450" y="230" as="targetPoint" />
          </mxGeometry>
        </mxCell>
        <mxCell id="kOjvWL8ZM4Nth4hHjJhm-24" value="&amp;lt;&amp;lt;include&amp;gt;&amp;gt;" style="endArrow=open;endSize=12;dashed=1;html=1;rounded=0;fontSize=18;entryX=0.5;entryY=1;entryDx=0;entryDy=0;exitX=0.5;exitY=0;exitDx=0;exitDy=0;" edge="1" parent="1" source="kOjvWL8ZM4Nth4hHjJhm-3">
          <mxGeometry x="-0.0821" y="-21" width="160" relative="1" as="geometry">
            <mxPoint x="299" y="230" as="sourcePoint" />
            <mxPoint x="301.2499999999998" y="110" as="targetPoint" />
            <mxPoint as="offset" />
          </mxGeometry>
        </mxCell>
        <mxCell id="kOjvWL8ZM4Nth4hHjJhm-25" value="" style="endArrow=none;html=1;rounded=0;entryX=0;entryY=0.5;entryDx=0;entryDy=0;" edge="1" parent="1" source="kOjvWL8ZM4Nth4hHjJhm-3" target="kOjvWL8ZM4Nth4hHjJhm-9">
          <mxGeometry width="50" height="50" relative="1" as="geometry">
            <mxPoint x="400" y="280" as="sourcePoint" />
            <mxPoint x="450" y="230" as="targetPoint" />
          </mxGeometry>
        </mxCell>
        <mxCell id="kOjvWL8ZM4Nth4hHjJhm-26" value="" style="endArrow=none;html=1;rounded=0;entryX=0;entryY=0.5;entryDx=0;entryDy=0;exitX=1;exitY=0;exitDx=0;exitDy=0;" edge="1" parent="1" source="kOjvWL8ZM4Nth4hHjJhm-3" target="kOjvWL8ZM4Nth4hHjJhm-7">
          <mxGeometry width="50" height="50" relative="1" as="geometry">
            <mxPoint x="330" y="240" as="sourcePoint" />
            <mxPoint x="450" y="230" as="targetPoint" />
          </mxGeometry>
        </mxCell>
        <mxCell id="kOjvWL8ZM4Nth4hHjJhm-27" value="" style="endArrow=none;html=1;rounded=0;exitX=1;exitY=1;exitDx=0;exitDy=0;entryX=0;entryY=0.5;entryDx=0;entryDy=0;" edge="1" parent="1" source="kOjvWL8ZM4Nth4hHjJhm-3" target="kOjvWL8ZM4Nth4hHjJhm-8">
          <mxGeometry width="50" height="50" relative="1" as="geometry">
            <mxPoint x="400" y="280" as="sourcePoint" />
            <mxPoint x="450" y="230" as="targetPoint" />
          </mxGeometry>
        </mxCell>
        <mxCell id="kOjvWL8ZM4Nth4hHjJhm-28" value="" style="endArrow=none;html=1;rounded=0;exitX=0.5;exitY=0;exitDx=0;exitDy=0;entryX=0;entryY=0.5;entryDx=0;entryDy=0;" edge="1" parent="1" source="kOjvWL8ZM4Nth4hHjJhm-7" target="kOjvWL8ZM4Nth4hHjJhm-10">
          <mxGeometry width="50" height="50" relative="1" as="geometry">
            <mxPoint x="400" y="280" as="sourcePoint" />
            <mxPoint x="560" y="100" as="targetPoint" />
          </mxGeometry>
        </mxCell>
        <mxCell id="kOjvWL8ZM4Nth4hHjJhm-29" value="" style="endArrow=none;html=1;rounded=0;entryX=0;entryY=0.5;entryDx=0;entryDy=0;exitX=1;exitY=0;exitDx=0;exitDy=0;" edge="1" parent="1" source="kOjvWL8ZM4Nth4hHjJhm-7" target="kOjvWL8ZM4Nth4hHjJhm-11">
          <mxGeometry width="50" height="50" relative="1" as="geometry">
            <mxPoint x="400" y="260" as="sourcePoint" />
            <mxPoint x="450" y="210" as="targetPoint" />
          </mxGeometry>
        </mxCell>
        <mxCell id="kOjvWL8ZM4Nth4hHjJhm-30" value="" style="endArrow=none;html=1;rounded=0;entryX=0;entryY=0.5;entryDx=0;entryDy=0;exitX=1;exitY=1;exitDx=0;exitDy=0;" edge="1" parent="1" source="kOjvWL8ZM4Nth4hHjJhm-7" target="kOjvWL8ZM4Nth4hHjJhm-12">
          <mxGeometry width="50" height="50" relative="1" as="geometry">
            <mxPoint x="400" y="260" as="sourcePoint" />
            <mxPoint x="450" y="210" as="targetPoint" />
          </mxGeometry>
        </mxCell>
        <mxCell id="kOjvWL8ZM4Nth4hHjJhm-34" value="" style="endArrow=none;html=1;rounded=0;entryX=0;entryY=0.5;entryDx=0;entryDy=0;exitX=0.5;exitY=1;exitDx=0;exitDy=0;" edge="1" parent="1" source="kOjvWL8ZM4Nth4hHjJhm-7" target="kOjvWL8ZM4Nth4hHjJhm-13">
          <mxGeometry width="50" height="50" relative="1" as="geometry">
            <mxPoint x="400" y="260" as="sourcePoint" />
            <mxPoint x="450" y="210" as="targetPoint" />
          </mxGeometry>
        </mxCell>
        <mxCell id="kOjvWL8ZM4Nth4hHjJhm-35" value="" style="endArrow=none;html=1;rounded=0;entryX=0;entryY=0.5;entryDx=0;entryDy=0;exitX=0.427;exitY=-0.072;exitDx=0;exitDy=0;exitPerimeter=0;" edge="1" parent="1" source="kOjvWL8ZM4Nth4hHjJhm-8" target="kOjvWL8ZM4Nth4hHjJhm-14">
          <mxGeometry width="50" height="50" relative="1" as="geometry">
            <mxPoint x="400" y="380" as="sourcePoint" />
            <mxPoint x="450" y="330" as="targetPoint" />
          </mxGeometry>
        </mxCell>
        <mxCell id="kOjvWL8ZM4Nth4hHjJhm-36" value="" style="endArrow=none;html=1;rounded=0;entryX=0;entryY=0.5;entryDx=0;entryDy=0;exitX=1;exitY=0;exitDx=0;exitDy=0;" edge="1" parent="1" source="kOjvWL8ZM4Nth4hHjJhm-8" target="kOjvWL8ZM4Nth4hHjJhm-15">
          <mxGeometry width="50" height="50" relative="1" as="geometry">
            <mxPoint x="400" y="380" as="sourcePoint" />
            <mxPoint x="450" y="330" as="targetPoint" />
          </mxGeometry>
        </mxCell>
        <mxCell id="kOjvWL8ZM4Nth4hHjJhm-37" value="" style="endArrow=none;html=1;rounded=0;exitX=1;exitY=0.5;exitDx=0;exitDy=0;" edge="1" parent="1" source="kOjvWL8ZM4Nth4hHjJhm-8" target="kOjvWL8ZM4Nth4hHjJhm-16">
          <mxGeometry width="50" height="50" relative="1" as="geometry">
            <mxPoint x="400" y="380" as="sourcePoint" />
            <mxPoint x="450" y="330" as="targetPoint" />
          </mxGeometry>
        </mxCell>
        <mxCell id="kOjvWL8ZM4Nth4hHjJhm-38" value="" style="endArrow=none;html=1;rounded=0;entryX=0;entryY=0.5;entryDx=0;entryDy=0;" edge="1" parent="1" target="kOjvWL8ZM4Nth4hHjJhm-17">
          <mxGeometry width="50" height="50" relative="1" as="geometry">
            <mxPoint x="510" y="430" as="sourcePoint" />
            <mxPoint x="450" y="330" as="targetPoint" />
          </mxGeometry>
        </mxCell>
        <mxCell id="kOjvWL8ZM4Nth4hHjJhm-39" value="" style="endArrow=none;html=1;rounded=0;exitX=0.5;exitY=1;exitDx=0;exitDy=0;entryX=0;entryY=0.5;entryDx=0;entryDy=0;" edge="1" parent="1" source="kOjvWL8ZM4Nth4hHjJhm-8" target="kOjvWL8ZM4Nth4hHjJhm-18">
          <mxGeometry width="50" height="50" relative="1" as="geometry">
            <mxPoint x="400" y="380" as="sourcePoint" />
            <mxPoint x="450" y="330" as="targetPoint" />
          </mxGeometry>
        </mxCell>
        <mxCell id="kOjvWL8ZM4Nth4hHjJhm-40" value="detail" style="ellipse;whiteSpace=wrap;html=1;" vertex="1" parent="1">
          <mxGeometry x="750" y="-80" width="90" height="40" as="geometry" />
        </mxCell>
        <mxCell id="kOjvWL8ZM4Nth4hHjJhm-41" value="hapus" style="ellipse;whiteSpace=wrap;html=1;" vertex="1" parent="1">
          <mxGeometry x="760" y="-20" width="90" height="40" as="geometry" />
        </mxCell>
        <mxCell id="kOjvWL8ZM4Nth4hHjJhm-42" value="" style="endArrow=block;endSize=16;endFill=0;html=1;rounded=0;fontSize=18;exitX=0;exitY=0.5;exitDx=0;exitDy=0;" edge="1" parent="1" source="kOjvWL8ZM4Nth4hHjJhm-40" target="kOjvWL8ZM4Nth4hHjJhm-10">
          <mxGeometry width="160" relative="1" as="geometry">
            <mxPoint x="740.9799999999996" y="2" as="sourcePoint" />
            <mxPoint x="679.9999999999952" y="40" as="targetPoint" />
          </mxGeometry>
        </mxCell>
        <mxCell id="kOjvWL8ZM4Nth4hHjJhm-43" value="" style="endArrow=block;endSize=16;endFill=0;html=1;rounded=0;fontSize=18;entryX=1;entryY=0;entryDx=0;entryDy=0;exitX=0;exitY=0.5;exitDx=0;exitDy=0;" edge="1" parent="1" source="kOjvWL8ZM4Nth4hHjJhm-41" target="kOjvWL8ZM4Nth4hHjJhm-10">
          <mxGeometry width="160" relative="1" as="geometry">
            <mxPoint x="789.9999999999943" y="40" as="sourcePoint" />
            <mxPoint x="709.9999999999952" y="70" as="targetPoint" />
            <Array as="points" />
          </mxGeometry>
        </mxCell>
        <mxCell id="kOjvWL8ZM4Nth4hHjJhm-44" value="detail" style="ellipse;whiteSpace=wrap;html=1;" vertex="1" parent="1">
          <mxGeometry x="760" y="60" width="90" height="40" as="geometry" />
        </mxCell>
        <mxCell id="kOjvWL8ZM4Nth4hHjJhm-45" value="" style="endArrow=block;endSize=16;endFill=0;html=1;rounded=0;fontSize=18;entryX=1;entryY=0.5;entryDx=0;entryDy=0;exitX=0;exitY=0.5;exitDx=0;exitDy=0;" edge="1" parent="1" source="kOjvWL8ZM4Nth4hHjJhm-44">
          <mxGeometry width="160" relative="1" as="geometry">
            <mxPoint x="770" y="130" as="sourcePoint" />
            <mxPoint x="719.9999999999952" y="109.99999999999989" as="targetPoint" />
          </mxGeometry>
        </mxCell>
        <mxCell id="kOjvWL8ZM4Nth4hHjJhm-46" value="tambah" style="ellipse;whiteSpace=wrap;html=1;" vertex="1" parent="1">
          <mxGeometry x="790" y="120" width="90" height="40" as="geometry" />
        </mxCell>
        <mxCell id="kOjvWL8ZM4Nth4hHjJhm-47" value="edit" style="ellipse;whiteSpace=wrap;html=1;" vertex="1" parent="1">
          <mxGeometry x="790" y="170" width="90" height="40" as="geometry" />
        </mxCell>
        <mxCell id="kOjvWL8ZM4Nth4hHjJhm-48" value="hapus" style="ellipse;whiteSpace=wrap;html=1;" vertex="1" parent="1">
          <mxGeometry x="780" y="220" width="90" height="40" as="geometry" />
        </mxCell>
        <mxCell id="kOjvWL8ZM4Nth4hHjJhm-49" value="" style="endArrow=block;endSize=16;endFill=0;html=1;rounded=0;fontSize=18;entryX=0.766;entryY=0.031;entryDx=0;entryDy=0;exitX=0;exitY=0.5;exitDx=0;exitDy=0;entryPerimeter=0;" edge="1" parent="1" source="kOjvWL8ZM4Nth4hHjJhm-46" target="kOjvWL8ZM4Nth4hHjJhm-12">
          <mxGeometry width="160" relative="1" as="geometry">
            <mxPoint x="739.9999999999943" y="140" as="sourcePoint" />
            <mxPoint x="699.9999999999952" y="170" as="targetPoint" />
          </mxGeometry>
        </mxCell>
        <mxCell id="kOjvWL8ZM4Nth4hHjJhm-50" value="" style="endArrow=block;endSize=16;endFill=0;html=1;rounded=0;fontSize=18;exitX=0;exitY=0.5;exitDx=0;exitDy=0;" edge="1" parent="1" source="kOjvWL8ZM4Nth4hHjJhm-47">
          <mxGeometry width="160" relative="1" as="geometry">
            <mxPoint x="769.9999999999943" y="150" as="sourcePoint" />
            <mxPoint x="720" y="180" as="targetPoint" />
          </mxGeometry>
        </mxCell>
        <mxCell id="kOjvWL8ZM4Nth4hHjJhm-51" value="" style="endArrow=block;endSize=16;endFill=0;html=1;rounded=0;fontSize=18;exitX=0;exitY=0.5;exitDx=0;exitDy=0;entryX=1;entryY=1;entryDx=0;entryDy=0;" edge="1" parent="1" source="kOjvWL8ZM4Nth4hHjJhm-48" target="kOjvWL8ZM4Nth4hHjJhm-12">
          <mxGeometry width="160" relative="1" as="geometry">
            <mxPoint x="799.9999999999943" y="200" as="sourcePoint" />
            <mxPoint x="729.9999999999998" y="190" as="targetPoint" />
          </mxGeometry>
        </mxCell>
        <mxCell id="kOjvWL8ZM4Nth4hHjJhm-52" value="edit" style="ellipse;whiteSpace=wrap;html=1;" vertex="1" parent="1">
          <mxGeometry x="770" y="360" width="90" height="40" as="geometry" />
        </mxCell>
        <mxCell id="kOjvWL8ZM4Nth4hHjJhm-53" value="edit" style="ellipse;whiteSpace=wrap;html=1;" vertex="1" parent="1">
          <mxGeometry x="770" y="430" width="90" height="40" as="geometry" />
        </mxCell>
        <mxCell id="kOjvWL8ZM4Nth4hHjJhm-54" value="edit" style="ellipse;whiteSpace=wrap;html=1;" vertex="1" parent="1">
          <mxGeometry x="770" y="500" width="90" height="40" as="geometry" />
        </mxCell>
        <mxCell id="kOjvWL8ZM4Nth4hHjJhm-55" value="" style="endArrow=block;endSize=16;endFill=0;html=1;rounded=0;fontSize=18;exitX=0;exitY=0.5;exitDx=0;exitDy=0;entryX=1;entryY=1;entryDx=0;entryDy=0;" edge="1" parent="1" source="kOjvWL8ZM4Nth4hHjJhm-52">
          <mxGeometry width="160" relative="1" as="geometry">
            <mxPoint x="797.57" y="420" as="sourcePoint" />
            <mxPoint x="719.9964068711989" y="374.1421356237331" as="targetPoint" />
          </mxGeometry>
        </mxCell>
        <mxCell id="kOjvWL8ZM4Nth4hHjJhm-56" value="" style="endArrow=block;endSize=16;endFill=0;html=1;rounded=0;fontSize=18;exitX=0;exitY=0.5;exitDx=0;exitDy=0;entryX=1;entryY=0.5;entryDx=0;entryDy=0;" edge="1" parent="1" source="kOjvWL8ZM4Nth4hHjJhm-53" target="kOjvWL8ZM4Nth4hHjJhm-16">
          <mxGeometry width="160" relative="1" as="geometry">
            <mxPoint x="779.9999999999998" y="390" as="sourcePoint" />
            <mxPoint x="729.9964068711988" y="384.1421356237331" as="targetPoint" />
          </mxGeometry>
        </mxCell>
        <mxCell id="kOjvWL8ZM4Nth4hHjJhm-57" value="" style="endArrow=block;endSize=16;endFill=0;html=1;rounded=0;fontSize=18;exitX=0;exitY=0.5;exitDx=0;exitDy=0;entryX=1;entryY=0.5;entryDx=0;entryDy=0;" edge="1" parent="1" source="kOjvWL8ZM4Nth4hHjJhm-54" target="kOjvWL8ZM4Nth4hHjJhm-17">
          <mxGeometry width="160" relative="1" as="geometry">
            <mxPoint x="779.9999999999998" y="460" as="sourcePoint" />
            <mxPoint x="739.9999999999998" y="450" as="targetPoint" />
          </mxGeometry>
        </mxCell>
      </root>
    </mxGraphModel>
  </diagram>
</mxfile>
